<?xml version="1.0" standalone="no"?>
<!DOCTYPE svg PUBLIC "-//W3C//DTD SVG 20010904//EN"
 "http://www.w3.org/TR/2001/REC-SVG-20010904/DTD/svg10.dtd">
<svg version="1.0" xmlns="http://www.w3.org/2000/svg"
 width="512.000000pt" height="512.000000pt" viewBox="0 0 512.000000 512.000000"
 preserveAspectRatio="xMidYMid meet">

<g transform="translate(0.000000,512.000000) scale(0.100000,-0.100000)"
fill="#000000" stroke="none">
<path d="M1723 4905 c-30 -15 -61 -41 -76 -63 -37 -53 -715 -1604 -734 -1677
-50 -193 71 -418 267 -498 53 -21 69 -22 492 -27 l437 -5 30 -29 c65 -63 78 5
-219 -1133 -149 -567 -270 -1049 -270 -1070 0 -21 9 -56 19 -78 64 -141 240
-179 351 -76 48 45 2102 2864 2147 2946 17 33 37 90 44 127 39 219 -114 447
-332 497 -25 6 -197 11 -399 11 -210 0 -370 4 -392 10 -68 19 -113 103 -90
169 6 17 104 152 217 301 113 149 215 290 225 313 49 108 -2 236 -115 288 -38
17 -84 19 -796 19 l-755 0 -51 -25z m1347 -281 c0 -3 -69 -96 -153 -207 -182
-241 -181 -239 -207 -316 -67 -199 34 -436 224 -525 89 -42 138 -46 512 -46
383 0 406 -3 439 -53 25 -38 35 -84 25 -117 -7 -26 -1840 -2553 -1847 -2546
-1 1 92 363 207 803 115 441 213 826 216 855 20 167 -90 354 -253 431 l-68 32
-435 5 c-321 4 -441 8 -457 17 -35 20 -66 72 -67 111 0 28 83 227 334 800
l335 762 597 0 c329 0 598 -3 598 -6z"/>
</g>
</svg>
