<?xml version="1.0" standalone="no"?>
<!DOCTYPE svg PUBLIC "-//W3C//DTD SVG 20010904//EN"
 "http://www.w3.org/TR/2001/REC-SVG-20010904/DTD/svg10.dtd">
<svg version="1.0" xmlns="http://www.w3.org/2000/svg"
 width="512.000000pt" height="512.000000pt" viewBox="0 0 512.000000 512.000000"
 preserveAspectRatio="xMidYMid meet">

<g transform="translate(0.000000,512.000000) scale(0.100000,-0.100000)"
fill="#000000" stroke="none">
<path d="M4590 5109 c-714 -51 -1298 -254 -1770 -617 -108 -83 -1305 -1274
-1331 -1324 -23 -45 -25 -115 -4 -165 8 -19 52 -73 97 -120 l82 -84 -139 -139
-139 -139 -81 78 c-110 108 -166 132 -249 110 -112 -30 -176 -138 -146 -250
11 -40 79 -111 743 -777 403 -403 746 -742 762 -752 142 -88 332 49 295 213
-11 51 -31 79 -116 167 l-73 76 139 139 139 139 84 -82 c47 -45 101 -89 120
-97 50 -21 120 -19 165 4 50 26 1241 1223 1324 1331 216 281 381 614 482 972
43 151 90 383 110 543 21 167 39 471 34 571 -5 96 -30 145 -95 185 -35 22 -50
24 -173 26 -74 0 -191 -3 -260 -8z m120 -461 c0 -141 -51 -482 -101 -683 -56
-218 -161 -478 -269 -658 -110 -185 -211 -309 -457 -557 l-232 -235 -568 568
-568 568 235 232 c319 315 490 441 777 571 314 142 785 250 1106 255 l77 1 0
-62z m-1910 -1853 l565 -565 -140 -140 -140 -140 -567 567 -568 568 137 137
c76 76 140 138 143 138 3 0 259 -254 570 -565z m-565 -565 l280 -280 -140
-140 -140 -140 -282 282 -283 283 137 137 c76 76 140 138 143 138 3 0 131
-126 285 -280z"/>
<path d="M610 1998 c-46 -13 -560 -522 -590 -583 -32 -66 -23 -144 24 -208 26
-35 110 -77 155 -77 76 1 116 32 374 288 137 136 259 265 272 287 48 81 41
165 -18 232 -56 64 -132 85 -217 61z"/>
<path d="M1155 1421 c-25 -13 -248 -229 -587 -568 -496 -498 -547 -552 -558
-593 -42 -159 91 -292 250 -250 41 11 95 62 593 558 383 382 554 560 568 590
31 63 24 148 -17 199 -50 61 -78 77 -147 81 -48 2 -71 -2 -102 -17z"/>
<path d="M1749 866 c-57 -20 -80 -40 -336 -298 -251 -252 -282 -293 -283 -369
0 -45 42 -129 77 -155 34 -25 87 -44 122 -44 81 0 96 12 373 288 147 146 275
281 283 299 40 84 26 164 -39 229 -59 59 -125 76 -197 50z"/>
</g>
</svg>
