<?xml version="1.0" standalone="no"?>
<!DOCTYPE svg PUBLIC "-//W3C//DTD SVG 20010904//EN"
 "http://www.w3.org/TR/2001/REC-SVG-20010904/DTD/svg10.dtd">
<svg version="1.0" xmlns="http://www.w3.org/2000/svg"
 width="512.000000pt" height="512.000000pt" viewBox="0 0 512.000000 512.000000"
 preserveAspectRatio="xMidYMid meet">

<g transform="translate(0.000000,512.000000) scale(0.100000,-0.100000)"
fill="#000000" stroke="none">
<path d="M2412 5100 c-288 -76 -477 -337 -459 -635 4 -71 14 -117 45 -206 22
-63 43 -138 46 -165 l7 -50 -43 -13 c-116 -34 -294 -120 -434 -210 -19 -13
-26 -10 -74 28 -62 49 -123 82 -200 107 -49 16 -109 18 -557 22 l-503 4 0
-216 c0 -240 7 -290 55 -391 61 -127 167 -222 305 -273 53 -20 90 -26 198 -30
117 -4 133 -7 129 -21 -3 -9 -23 -65 -45 -126 -83 -230 -102 -379 -102 -805 0
-390 19 -568 80 -744 l18 -54 -55 -28 c-81 -39 -183 -140 -227 -223 -65 -124
-66 -136 -66 -628 l0 -443 208 0 c236 0 309 11 405 62 153 80 286 278 287 427
0 33 0 33 23 17 106 -76 244 -163 320 -200 51 -24 248 -103 439 -175 l348
-131 342 129 c459 172 514 198 698 330 l85 61 7 -53 c23 -175 139 -334 301
-411 99 -47 159 -56 394 -56 l203 0 0 443 c0 492 -1 504 -66 628 -43 82 -142
180 -225 223 l-55 29 27 91 c55 185 62 253 66 636 7 478 -11 631 -99 875 -22
61 -42 117 -45 126 -4 14 12 17 129 21 110 5 145 10 202 31 135 50 240 145
301 272 48 101 55 151 55 391 l0 216 -502 -4 c-449 -4 -509 -6 -558 -22 -77
-25 -137 -58 -198 -105 -28 -23 -53 -41 -56 -41 -2 0 -42 24 -89 54 -90 56
-251 131 -350 162 l-58 18 7 50 c3 27 24 102 46 165 70 201 63 359 -23 531
-123 246 -419 380 -687 310z m274 -309 c105 -47 173 -148 181 -271 4 -57 0
-81 -37 -188 -22 -68 -44 -144 -47 -170 l-5 -47 -218 0 -218 0 -5 47 c-3 26
-25 102 -47 170 -38 111 -42 130 -37 194 10 138 102 251 232 285 49 13 148 3
201 -20z m144 -996 c530 -103 968 -486 1134 -992 62 -189 68 -239 73 -617 5
-377 -1 -471 -42 -637 -32 -127 -64 -209 -130 -338 -138 -264 -374 -496 -643
-631 -45 -22 -213 -90 -372 -150 l-289 -109 -289 108 c-316 119 -414 164 -542
249 -107 72 -273 231 -356 342 -120 161 -220 383 -266 593 -21 96 -23 125 -23
502 0 440 4 477 67 675 179 558 675 960 1263 1024 79 8 332 -3 415 -19z
m-1579 -141 c26 -12 50 -27 54 -33 4 -7 -13 -33 -42 -64 -27 -29 -73 -83 -102
-120 l-54 -68 -196 3 c-168 3 -201 6 -234 22 -89 44 -136 122 -137 224 l0 63
333 -3 c314 -3 334 -4 378 -24z m3329 -36 c0 -76 -23 -131 -75 -181 -59 -58
-102 -67 -311 -67 l-182 0 -53 68 c-29 37 -75 90 -102 119 -27 29 -46 57 -42
63 10 16 63 41 108 50 23 4 180 8 350 9 l307 1 0 -62z m-3570 -2587 c0 -5 27
-50 60 -100 l60 -92 0 -180 c0 -172 -1 -182 -25 -229 -42 -82 -122 -129 -222
-130 l-53 0 0 283 0 283 28 55 c16 33 44 67 70 86 42 31 82 43 82 24z m3182
-24 c26 -19 54 -53 71 -86 l27 -55 0 -283 0 -283 -47 0 c-102 0 -188 49 -229
130 -22 42 -23 57 -24 227 l0 182 60 92 c33 50 60 95 60 100 0 19 40 7 82 -24z"/>
<path d="M2390 3553 c-276 -42 -516 -167 -709 -368 -186 -194 -302 -445 -331
-715 -13 -123 -13 -597 0 -720 30 -281 150 -533 349 -731 173 -172 308 -246
649 -355 l213 -68 212 68 c339 108 500 198 668 373 185 194 299 441 329 715
13 123 13 592 0 718 -29 273 -145 522 -337 721 -179 185 -413 311 -661 354
-77 14 -315 19 -382 8z m400 -317 c36 -10 96 -32 133 -49 l68 -32 -134 -230
-133 -230 -164 0 -164 0 -133 230 c-131 227 -133 229 -110 242 42 24 154 64
218 78 88 20 331 15 419 -9z m-764 -502 l111 -192 -81 -141 -81 -141 -167 0
-168 0 0 53 c0 155 47 350 112 467 16 30 53 86 82 123 50 68 51 68 66 46 8
-12 65 -109 126 -215z m1304 106 c89 -133 134 -279 146 -472 l7 -108 -169 0
-169 0 -81 142 -82 141 71 121 c38 66 94 163 124 215 l55 94 24 -29 c13 -16
47 -63 74 -104z m-527 -585 c42 -74 77 -139 77 -145 0 -6 -35 -71 -77 -145
l-78 -135 -165 0 -165 0 -77 135 c-43 74 -78 139 -78 145 0 6 35 71 78 145
l77 135 165 0 165 0 78 -135z m-747 -437 l82 -141 -71 -121 c-38 -66 -94 -163
-124 -215 l-55 -94 -24 29 c-137 164 -206 347 -221 581 l-6 103 169 0 169 0
81 -142z m1421 39 c-15 -234 -84 -417 -221 -581 l-24 -29 -55 94 c-30 52 -86
149 -124 215 l-71 121 82 141 81 142 169 0 169 0 -6 -103z m-620 -562 l133
-229 -32 -18 c-18 -10 -115 -44 -215 -77 l-182 -59 -179 58 c-98 31 -195 66
-215 76 l-37 19 121 210 c66 116 127 220 135 233 15 22 18 22 177 20 l161 -3
133 -230z"/>
</g>
</svg>
