<?xml version="1.0" standalone="no"?>
<!DOCTYPE svg PUBLIC "-//W3C//DTD SVG 20010904//EN"
 "http://www.w3.org/TR/2001/REC-SVG-20010904/DTD/svg10.dtd">
<svg version="1.0" xmlns="http://www.w3.org/2000/svg"
 width="512.000000pt" height="512.000000pt" viewBox="0 0 512.000000 512.000000"
 preserveAspectRatio="xMidYMid meet">

<g transform="translate(0.000000,512.000000) scale(0.100000,-0.100000)"
fill="#000000" stroke="none">
<path d="M2941 5109 c-432 -46 -965 -278 -1251 -545 -40 -38 -58 -46 -134 -64
-205 -48 -442 -166 -656 -327 -94 -71 -229 -198 -241 -225 -23 -55 18 -118 77
-118 25 0 47 14 110 71 236 212 484 358 724 424 128 36 314 45 419 21 87 -20
172 -57 260 -114 35 -23 74 -42 86 -42 12 0 66 30 121 66 186 124 470 250 703
314 299 81 609 84 746 7 133 -75 107 -205 -80 -392 -115 -115 -227 -195 -405
-288 -276 -144 -556 -230 -837 -258 -148 -14 -156 -22 -164 -162 -15 -261
-185 -548 -410 -693 -352 -228 -859 -228 -1285 -1 -176 94 -299 243 -311 377
-9 90 43 240 133 384 52 83 58 130 21 164 -34 32 -86 29 -118 -5 -63 -70 -169
-278 -193 -383 -34 -143 -13 -287 59 -400 42 -67 158 -183 234 -233 126 -85
297 -160 436 -193 41 -10 75 -21 75 -26 0 -4 -15 -45 -34 -90 -125 -304 -138
-609 -40 -908 36 -109 135 -302 203 -397 l59 -82 -36 -27 c-131 -99 -251 -231
-304 -336 -30 -60 -58 -157 -58 -203 0 -48 25 -127 53 -172 88 -139 319 -201
552 -148 298 68 619 271 899 567 58 61 107 110 110 107 14 -16 32 -67 28 -79
-3 -8 -29 -41 -58 -72 -111 -121 -143 -256 -89 -377 47 -105 152 -179 314
-223 92 -26 314 -30 431 -9 101 18 291 76 365 111 34 16 95 33 140 40 170 25
370 109 522 219 l83 60 54 -25 c242 -111 533 24 611 283 33 109 11 266 -51
365 -38 59 -111 125 -174 156 l-56 27 -12 125 c-12 138 -46 283 -94 405 -150
383 -471 810 -808 1071 -265 206 -620 360 -946 409 -168 26 -157 22 -149 53 4
15 10 54 14 87 l6 60 90 11 c258 34 523 119 793 256 347 176 572 379 657 593
24 60 27 79 23 145 -12 193 -157 301 -451 335 l-57 6 -11 42 c-50 199 -315
296 -698 256z m312 -175 c70 -7 152 -41 187 -75 47 -47 40 -55 -57 -68 -337
-46 -678 -171 -966 -354 l-78 -49 -102 50 c-97 48 -166 72 -267 90 l-45 8 80
53 c100 66 351 189 470 231 187 65 409 114 555 123 56 4 138 0 223 -9z m-428
-1854 c325 -90 553 -209 810 -422 119 -99 204 -188 320 -332 249 -313 389
-594 435 -876 17 -99 17 -291 1 -365 -82 -381 -425 -681 -856 -750 -62 -10
-116 -25 -143 -40 -24 -14 -87 -39 -140 -55 -258 -83 -485 -85 -658 -6 -87 40
-125 125 -89 197 18 36 103 129 118 129 5 0 46 -25 92 -55 99 -66 313 -174
359 -182 66 -11 118 67 85 128 -5 11 -57 42 -115 69 -251 118 -364 210 -433
352 -71 147 -86 219 -86 408 1 185 8 223 77 397 l41 101 -19 33 c-24 41 -64
56 -105 39 -52 -22 -128 -203 -160 -380 -19 -108 -15 -315 8 -424 l20 -89
-166 -167 c-348 -350 -664 -530 -928 -530 -118 0 -167 15 -219 65 -42 40 -44
44 -44 100 0 91 44 169 160 286 52 52 132 121 177 152 118 82 124 116 42 213
-295 345 -388 771 -253 1158 13 38 38 99 55 136 l31 67 166 6 c92 3 208 13
257 22 357 66 637 268 800 578 l48 90 81 -6 c47 -4 144 -23 231 -47z m1827
-2082 c37 -49 58 -112 58 -172 0 -109 -90 -229 -194 -257 -41 -11 -160 -9
-172 3 -3 4 19 44 49 90 30 46 66 106 80 133 20 40 73 190 93 263 5 18 52 -15
86 -60z"/>
<path d="M2965 2292 c-108 -56 -180 -105 -189 -127 -13 -35 -6 -76 19 -100 35
-36 75 -32 143 12 31 20 91 53 133 74 43 21 84 48 93 61 23 32 20 71 -9 102
-37 40 -82 35 -190 -22z"/>
<path d="M1210 3671 c-50 -26 -84 -96 -75 -151 14 -82 107 -142 187 -120 40
12 94 66 104 106 31 123 -103 226 -216 165z"/>
</g>
</svg>
